<svg width="16" height="16" viewBox="0 0 16 16" fill="none" xmlns="http://www.w3.org/2000/svg">
<g clip-path="url(#clip0_1_140)">
<path d="M15.7608 9.93474C14.6919 14.2227 10.3475 16.8294 6.06561 15.7604C1.77749 14.6916 -0.829136 10.3473 0.239801 6.06549C1.30868 1.77749 5.6468 -0.829136 9.93493 0.239801C14.2168 1.30243 16.8297 5.64668 15.7608 9.93474Z" fill="url(#paint0_linear_1_140)"/>
<path d="M11.8091 7.00308C11.9653 5.94058 11.1591 5.36558 10.0466 4.98433L10.4091 3.54058L9.53407 3.32183L9.18407 4.72808C8.95282 4.67183 8.71532 4.61558 8.47782 4.56558L8.82782 3.15308L7.95282 2.93433L7.59657 4.37183C7.40282 4.32808 7.21532 4.28433 7.03407 4.24058V4.23433L5.82157 3.93433L5.59032 4.87183C5.59032 4.87183 6.24032 5.02183 6.22782 5.02808C6.58407 5.11558 6.64657 5.35308 6.63407 5.54058L6.22157 7.18433C6.24657 7.19058 6.27782 7.19683 6.31532 7.21558C6.28407 7.20933 6.25282 7.20308 6.22157 7.19058L5.64657 9.49058C5.60282 9.59683 5.49032 9.75933 5.24657 9.69683C5.25282 9.70933 4.60907 9.54058 4.60907 9.54058L4.17157 10.5468L5.31532 10.8343C5.52782 10.8906 5.73407 10.9406 5.94032 10.9968L5.57782 12.4531L6.45282 12.6718L6.81532 11.2281C7.05282 11.2906 7.29032 11.3531 7.51532 11.4093L7.15907 12.8468L8.03407 13.0656L8.39657 11.6093C9.89657 11.8906 11.0216 11.7781 11.4903 10.4218C11.8716 9.33433 11.4716 8.70308 10.6841 8.29058C11.2653 8.15933 11.6966 7.77808 11.8091 7.00308ZM9.80282 9.81558C9.53407 10.9031 7.69657 10.3156 7.10282 10.1656L7.58407 8.23433C8.17782 8.38433 10.0903 8.67808 9.80282 9.81558ZM10.0778 6.98433C9.82782 7.97808 8.30282 7.47183 7.80907 7.34683L8.24657 5.59683C8.74032 5.72183 10.3341 5.95308 10.0778 6.98433Z" fill="#26233C"/>
</g>
<defs>
<linearGradient id="paint0_linear_1_140" x1="7.9958" y1="-0.00371793" x2="7.9958" y2="15.9985" gradientUnits="userSpaceOnUse">
<stop stop-color="#F9AA4B"/>
<stop offset="1" stop-color="#F7931A"/>
</linearGradient>
<clipPath id="clip0_1_140">
<rect width="16" height="16" fill="white"/>
</clipPath>
</defs>
</svg>
