<svg width="94" height="89" viewBox="0 0 94 89" fill="none" xmlns="http://www.w3.org/2000/svg">
<path fill-rule="evenodd" clip-rule="evenodd" d="M3.11465 46.0239C2.6238 47.5747 2.05822 48.8368 1.36658 49.5825L0.633408 48.9024C1.16364 48.3308 1.67619 47.2547 2.16126 45.7221C2.64045 44.2081 3.07299 42.3162 3.47804 40.1752C4.11685 36.7986 4.68041 32.8414 5.25201 28.8278C5.40559 27.7493 5.55976 26.6668 5.71612 25.5903C6.45227 20.5225 7.23764 15.5858 8.23969 11.9127C8.73976 10.0796 9.30301 8.52521 9.96054 7.41896C10.6046 6.33533 11.4308 5.53394 12.5 5.53394C13.1688 5.53393 13.6621 6.02848 14.0201 6.61549C14.3911 7.22378 14.7125 8.08172 14.9994 9.12221C15.5754 11.2109 16.0478 14.171 16.4539 17.6901C17.2486 24.5758 17.7999 33.6988 18.3529 42.8522L18.3913 43.4868C18.958 52.8625 19.5326 62.2167 20.3775 69.2268C20.8003 72.7353 21.2881 75.6306 21.8686 77.6401C22.1599 78.6485 22.4654 79.4 22.7777 79.8891C23.1002 80.3942 23.3493 80.5 23.5 80.5C24.0511 80.5 24.6453 80.0923 25.269 79.0587C25.8799 78.0461 26.4336 76.568 26.9441 74.7453C27.9634 71.1063 28.7718 66.2411 29.5632 61.3395C29.6088 61.0574 29.6543 60.7753 29.6997 60.4932C30.4415 55.8917 31.178 51.3222 32.069 47.841C32.541 45.9968 33.0651 44.4214 33.674 43.2983C34.2624 42.2131 35.0362 41.359 36.0781 41.3654C36.9877 41.3709 37.7429 41.7987 38.3642 42.4641C38.9772 43.1205 39.4818 44.029 39.9182 45.0673C40.7565 47.0614 41.3993 49.6781 42.0346 52.264C42.0602 52.3683 42.0859 52.4726 42.1115 52.5768C42.7789 55.291 43.4467 57.9443 44.3317 59.9203C45.2355 61.9386 46.2528 63 47.5 63C48.9624 63 50.0043 62.5462 50.8344 61.8721C51.6819 61.184 52.3246 60.2546 52.9604 59.2629C53.0381 59.1419 53.1158 59.0194 53.194 58.8963C53.7396 58.0373 54.3062 57.1452 54.9962 56.4525C55.8099 55.6357 56.8211 55.0656 58.2125 55.0656C58.6939 55.0656 59.1978 54.8015 59.7364 54.1943C60.2742 53.5883 60.7932 52.6978 61.2971 51.5881C62.3038 49.3706 63.1928 46.4095 64.0574 43.4382C64.1303 43.1878 64.203 42.9373 64.2756 42.6872C65.058 39.9911 65.8272 37.3404 66.6451 35.3672C67.0906 34.2925 67.5682 33.3731 68.0987 32.7501C68.6276 32.1289 69.3084 31.6969 70.1187 31.8949C70.8613 32.0764 71.4642 32.7401 71.9683 33.5513C72.4876 34.387 72.9743 35.4989 73.4389 36.7702C74.3061 39.1425 75.1279 42.1592 75.9467 45.1649C76.006 45.3826 76.0653 45.6002 76.1245 45.8175C77.0069 49.052 77.889 52.2169 78.8331 54.5728C79.3059 55.7528 79.782 56.6973 80.2623 57.3387C80.7546 57.9962 81.1684 58.2272 81.5 58.2272C81.924 58.2272 82.3688 58.0464 82.847 57.6593C83.327 57.2707 83.8105 56.698 84.2977 55.9772C85.2732 54.534 86.2006 52.5949 87.1198 50.6129C87.2149 50.4078 87.31 50.2023 87.4049 49.9969C88.2187 48.2366 89.0286 46.4845 89.8451 45.131C90.3013 44.3747 90.7762 43.7137 91.2763 43.2367C91.7729 42.763 92.3491 42.4192 93 42.4192V43.4192C92.7165 43.4192 92.3763 43.5695 91.9666 43.9603C91.5604 44.3477 91.1391 44.9217 90.7014 45.6475C89.9154 46.9506 89.1301 48.6488 88.3104 50.4213C88.2164 50.6246 88.122 50.8289 88.027 51.0336C87.1134 53.0036 86.1541 55.0165 85.1261 56.5372C84.6116 57.2985 84.064 57.9607 83.4761 58.4366C82.8863 58.9141 82.2259 59.2272 81.5 59.2272C80.6816 59.2272 80.0083 58.6679 79.4618 57.9381C78.9033 57.1922 78.3888 56.1524 77.9048 54.9448C76.9352 52.5253 76.0384 49.3011 75.1598 46.0807C75.1017 45.8676 75.0436 45.6544 74.9856 45.4415C74.1626 42.4208 73.3515 39.4439 72.4997 37.1135C72.0435 35.8654 71.5845 34.8284 71.1189 34.0791C70.6381 33.3055 70.2168 32.9483 69.8813 32.8663C69.6134 32.8008 69.288 32.8957 68.8601 33.3984C68.4337 33.8992 68.0039 34.7006 67.5689 35.7501C66.7736 37.6689 66.02 40.2648 65.232 42.9797C65.1608 43.2248 65.0894 43.4709 65.0176 43.7176C64.1572 46.6743 63.2493 49.707 62.2076 52.0015C61.6872 53.1477 61.1192 54.1426 60.4845 54.858C59.8507 55.5723 59.0968 56.0656 58.2125 56.0656C57.1415 56.0656 56.373 56.4874 55.7047 57.1583C55.0978 57.7675 54.5953 58.5573 54.0415 59.4277C53.9629 59.5512 53.8833 59.6763 53.8022 59.8027C53.1662 60.7947 52.4494 61.8489 51.4648 62.6484C50.4629 63.462 49.2001 64 47.5 64C45.5847 64 44.3293 62.3617 43.419 60.3291C42.4898 58.2542 41.8019 55.5056 41.1404 52.8156C41.1183 52.7257 41.0962 52.6358 41.0741 52.546C40.4295 49.9228 39.8032 47.3743 38.9964 45.4547C38.5795 44.4631 38.1298 43.6783 37.6333 43.1466C37.1452 42.6239 36.6359 42.3688 36.0719 42.3654C35.6403 42.3627 35.1225 42.7248 34.5531 43.7749C34.0043 44.7871 33.5044 46.2659 33.0378 48.0889C32.1586 51.5242 31.4288 56.0512 30.6837 60.6726C30.6394 60.9477 30.595 61.2232 30.5505 61.4989C29.7615 66.3854 28.9446 71.3107 27.9071 75.015C27.3892 76.864 26.8067 78.4459 26.1252 79.5753C25.4564 80.6837 24.602 81.5 23.5 81.5C22.8242 81.5 22.3134 81.0202 21.9348 80.4272C21.5459 79.8182 21.2088 78.9591 20.9079 77.9176C20.304 75.8273 19.8088 72.8659 19.3846 69.3464C18.5354 62.3003 17.9592 52.9129 17.3931 43.5471L17.3559 42.9322C16.8019 33.7629 16.252 24.6627 15.4605 17.8047C15.0555 14.2957 14.5899 11.399 14.0354 9.38805C13.7571 8.37869 13.4651 7.62603 13.1663 7.13618C12.8546 6.62506 12.6218 6.53394 12.5 6.53394C11.988 6.53394 11.4215 6.91815 10.8202 7.9299C10.2322 8.91904 9.69714 10.3698 9.20444 12.1759C8.22094 15.781 7.44303 20.6584 6.70574 25.7341C6.55052 26.8026 6.39713 27.8798 6.24403 28.9549C5.67201 32.9718 5.1041 36.9598 4.46061 40.3611C4.05258 42.5178 3.61139 44.4544 3.11465 46.0239Z" fill="#B93BF5"/>
<g opacity="0.1">
<path fill-rule="evenodd" clip-rule="evenodd" d="M0.5 89V0H1.5V89H0.5Z" fill="#26233C"/>
<path fill-rule="evenodd" clip-rule="evenodd" d="M23.5001 89V0H24.5001V89H23.5001Z" fill="#26233C"/>
<path fill-rule="evenodd" clip-rule="evenodd" d="M46.5001 89V0H47.5001V89H46.5001Z" fill="#26233C"/>
<path fill-rule="evenodd" clip-rule="evenodd" d="M92.5 89V0H93.5V89H92.5Z" fill="#26233C"/>
<path fill-rule="evenodd" clip-rule="evenodd" d="M69.5 89V0H70.5V89H69.5Z" fill="#26233C"/>
</g>
</svg>
