<svg width="94" height="89" viewBox="0 0 94 89" fill="none" xmlns="http://www.w3.org/2000/svg">
<path fill-rule="evenodd" clip-rule="evenodd" d="M90.8853 46.0239C91.3762 47.5747 91.9418 48.8368 92.6334 49.5825L93.3666 48.9024C92.8363 48.3308 92.3238 47.2547 91.8387 45.7221C91.3595 44.2081 90.927 42.3162 90.5219 40.1752C89.8831 36.7986 89.3196 32.8414 88.748 28.8278C88.5944 27.7493 88.4402 26.6668 88.2839 25.5903C87.5477 20.5225 86.7623 15.5858 85.7603 11.9127C85.2602 10.0796 84.697 8.52521 84.0394 7.41896C83.3954 6.33533 82.5692 5.53394 81.5 5.53394C80.8686 5.53393 80.3729 5.93863 79.9952 6.46401C79.613 6.99563 79.2818 7.74213 78.9862 8.6398C78.3929 10.4414 77.8995 12.9886 77.4696 16.0081C76.6284 21.917 76.0161 29.7437 75.4021 37.5907L75.3593 38.1378C74.73 46.1793 74.0933 54.1957 73.2025 60.2017C72.7565 63.2085 72.2508 65.6821 71.6605 67.3945C71.3644 68.2536 71.0581 68.8874 70.7498 69.2972C70.4391 69.7102 70.1873 69.8198 70 69.8198C69.3775 69.8198 68.79 69.4915 68.2125 68.7804C67.631 68.0643 67.1052 67.0114 66.6218 65.6962C65.6558 63.0681 64.9127 59.5475 64.183 55.9789C64.1408 55.7725 64.0986 55.5659 64.0565 55.3594C63.3746 52.0182 62.6937 48.6821 61.8426 46.1376C61.3913 44.7883 60.8794 43.6209 60.269 42.7832C59.6589 41.946 58.8888 41.3595 57.9219 41.3654C57.3937 41.3686 56.9367 41.6056 56.5545 41.9719C56.1784 42.3324 55.8559 42.8342 55.572 43.4253C55.0041 44.6076 54.5367 46.2627 54.1314 48.2002C53.349 51.9404 52.7718 56.8696 52.1933 61.8089C52.1714 61.9963 52.1494 62.1837 52.1274 62.3711C51.5246 67.5143 50.912 72.6203 50.0585 76.4402C49.631 78.3539 49.1508 79.9073 48.5996 80.9717C48.031 82.0699 47.4855 82.4661 47 82.4661C46.4135 82.4661 45.8507 82.155 45.291 81.4719C44.7279 80.7847 44.2143 79.7735 43.7404 78.5093C42.7937 75.9837 42.0584 72.5979 41.3586 69.166C41.2716 68.7394 41.1851 68.312 41.0989 67.8857C40.4958 64.9046 39.9029 61.9736 39.2057 59.7003C38.8078 58.4031 38.3646 57.2801 37.8441 56.4722C37.3326 55.6781 36.6636 55.0656 35.7875 55.0656C35.3061 55.0656 34.8022 54.8015 34.2635 54.1943C33.7258 53.5883 33.2067 52.6978 32.7029 51.5881C31.6962 49.3706 30.8072 46.4095 29.9426 43.4382C29.8697 43.1878 29.797 42.9373 29.7244 42.6872C28.942 39.9911 28.1728 37.3404 27.3549 35.3672C26.9094 34.2925 26.4318 33.3731 25.9013 32.7501C25.3724 32.1289 24.6915 31.6969 23.8813 31.8949C23.1387 32.0764 22.5358 32.7401 22.0317 33.5513C21.5124 34.387 21.0257 35.4989 20.561 36.7702C19.6939 39.1425 18.8721 42.1592 18.0533 45.1649C17.994 45.3826 17.9347 45.6002 17.8754 45.8175C16.993 49.052 16.111 52.2169 15.1669 54.5728C14.694 55.7528 14.218 56.6973 13.7377 57.3387C13.2454 57.9962 12.8316 58.2272 12.5 58.2272C12.076 58.2272 11.6312 58.0464 11.153 57.6593C10.6729 57.2707 10.1895 56.698 9.70232 55.9772C8.72676 54.534 7.79936 52.5949 6.88015 50.6129C6.78506 50.4078 6.69003 50.2023 6.59506 49.9969C5.7813 48.2366 4.97136 46.4845 4.15489 45.131C3.69872 44.3747 3.22375 43.7137 2.72365 43.2367C2.22704 42.763 1.65086 42.4192 0.999992 42.4192V43.4192C1.2835 43.4192 1.62373 43.5695 2.03342 43.9603C2.43961 44.3477 2.86084 44.9217 3.29861 45.6475C4.08461 46.9506 4.86993 48.6488 5.68957 50.4213C5.78356 50.6246 5.87801 50.8289 5.97296 51.0336C6.88657 53.0036 7.84589 55.0165 8.87384 56.5372C9.3884 57.2985 9.93594 57.9607 10.5239 58.4366C11.1137 58.9141 11.774 59.2272 12.5 59.2272C13.3184 59.2272 13.9917 58.6679 14.5382 57.9381C15.0967 57.1922 15.6112 56.1524 16.0952 54.9448C17.0648 52.5253 17.9616 49.3011 18.8402 46.0807C18.8983 45.8676 18.9564 45.6544 19.0144 45.4415C19.8374 42.4208 20.6484 39.4439 21.5003 37.1135C21.9565 35.8654 22.4155 34.8284 22.881 34.0791C23.3618 33.3055 23.7832 32.9483 24.1187 32.8663C24.3866 32.8008 24.7119 32.8957 25.1399 33.3984C25.5663 33.8992 25.996 34.7006 26.4311 35.7501C27.2264 37.6689 27.9799 40.2648 28.768 42.9797C28.8392 43.2248 28.9106 43.4709 28.9824 43.7176C29.8428 46.6743 30.7507 49.707 31.7924 52.0015C32.3128 53.1477 32.8808 54.1426 33.5155 54.858C34.1493 55.5723 34.9032 56.0656 35.7875 56.0656C36.1426 56.0656 36.5498 56.3095 37.0035 57.0138C37.4484 57.7044 37.8596 58.722 38.2496 59.9936C38.9312 62.2159 39.5132 65.0919 40.1182 68.0816C40.2045 68.5079 40.2912 68.9365 40.3787 69.3658C41.0758 72.784 41.8249 76.2483 42.804 78.8603C43.2931 80.1649 43.8527 81.2944 44.5175 82.1057C45.1856 82.921 46.0053 83.4661 47 83.4661C48.0957 83.4661 48.8934 82.5791 49.4876 81.4315C50.0994 80.25 50.6018 78.595 51.0345 76.6582C51.9015 72.7774 52.5196 67.615 53.1206 62.4875C53.1416 62.3091 53.1624 62.1307 53.1833 61.9524C53.7646 56.9897 54.3373 52.0999 55.1102 48.405C55.5113 46.4876 55.9592 44.9286 56.4734 43.8583C56.7305 43.323 56.9908 42.9389 57.2464 42.6939C57.4959 42.4547 57.7195 42.3666 57.9281 42.3654C58.4348 42.3623 58.9405 42.6582 59.4608 43.3721C59.9808 44.0857 60.4539 45.1381 60.8943 46.4548C61.7252 48.939 62.3947 52.2185 63.082 55.5855C63.1223 55.7831 63.1628 55.9811 63.2033 56.1792C63.929 59.7287 64.6861 63.3285 65.6832 66.0412C66.1813 67.3964 66.7526 68.569 67.4362 69.4108C68.1239 70.2576 68.9693 70.8198 70 70.8198C70.6392 70.8198 71.1511 70.4271 71.5489 69.8984C71.9491 69.3665 72.2961 68.6192 72.6059 67.7204C73.2275 65.9172 73.7437 63.3685 74.1917 60.3485C75.0887 54.3009 75.7278 46.2458 76.3563 38.2159L76.3973 37.6915C77.0127 29.8261 77.623 22.0259 78.4596 16.1491C78.8878 13.1418 79.3715 10.6667 79.936 8.95262C80.2193 8.09248 80.5123 7.45784 80.8071 7.04777C81.1064 6.63147 81.3407 6.53394 81.5 6.53394C82.012 6.53394 82.5785 6.91815 83.1798 7.9299C83.7678 8.91904 84.3028 10.3698 84.7955 12.1759C85.779 15.781 86.557 20.6584 87.2942 25.7341C87.4495 26.8026 87.6029 27.8798 87.756 28.9549C88.328 32.9718 88.8959 36.9598 89.5394 40.3611C89.9474 42.5178 90.3886 44.4544 90.8853 46.0239Z" fill="#F5CC3B"/>
<g opacity="0.1">
<path d="M93 0V89" stroke="#26233C"/>
<path d="M69.9999 0V89" stroke="#26233C"/>
<path d="M46.9999 0V89" stroke="#26233C"/>
<path d="M1 0V89" stroke="#26233C"/>
<path d="M24 0V89" stroke="#26233C"/>
</g>
</svg>
