<svg width="94" height="89" viewBox="0 0 94 89" fill="none" xmlns="http://www.w3.org/2000/svg">
<path fill-rule="evenodd" clip-rule="evenodd" d="M80.5487 22.1453C80.9564 21.7525 81.4415 21.5 82 21.5C82.9602 21.5 83.7698 21.9423 84.4447 22.6286C85.1123 23.3075 85.6709 24.2461 86.1548 25.3083C87.1215 27.4304 87.8509 30.1881 88.5217 32.7241L88.5224 32.7269C89.2041 35.3042 89.8179 37.616 90.5487 38.9682C90.9224 39.6598 91.2529 39.9557 91.5113 40.024C91.714 40.0776 92.0654 40.03 92.6334 39.4175L93.3666 40.0976C92.7128 40.8025 92.0016 41.1879 91.2558 40.9908C90.5655 40.8084 90.0614 40.1698 89.6689 39.4437C88.8769 37.9781 88.2379 35.5621 87.5796 33.0731L87.5557 32.9826C86.8782 30.4213 86.1695 27.7529 85.2448 25.7229C84.7828 24.7087 84.2821 23.8895 83.7317 23.3297C83.1884 22.7773 82.6211 22.5 82 22.5C81.7679 22.5 81.5191 22.599 81.2424 22.8655C80.9599 23.1376 80.6733 23.5625 80.3901 24.1506C79.824 25.326 79.3257 27.0366 78.8754 29.1361C77.9954 33.2389 77.3256 38.6898 76.6482 44.2019L76.6041 44.561C75.9136 50.1781 75.2105 55.83 74.2632 60.0776C73.7904 62.1977 73.2493 64.0043 72.6013 65.2913C71.9745 66.5361 71.1415 67.5 70 67.5C69.3902 67.5 68.8821 67.1723 68.4729 66.6981C68.0666 66.2272 67.7162 65.567 67.4054 64.7786C66.7824 63.1979 66.2691 60.9696 65.8274 58.3378C64.9426 53.0664 64.3253 46.0478 63.7324 39.0558C63.6984 38.654 63.6644 38.2524 63.6304 37.8512C63.0724 31.2556 62.5238 24.7713 61.7811 19.8397C61.3866 17.2203 60.9415 15.0693 60.4217 13.5815C60.1609 12.8349 59.8925 12.289 59.6248 11.9382C59.3556 11.5855 59.1448 11.5009 58.9969 11.5C58.4678 11.4968 57.9479 11.7796 57.4158 12.4249C56.8814 13.0731 56.3852 14.03 55.9153 15.2296C55.0066 17.5496 54.2497 20.6329 53.475 23.7886C53.4491 23.8942 53.4231 24 53.3971 24.1057C52.6009 27.3475 51.78 30.641 50.7548 33.1233C50.2424 34.3639 49.6645 35.439 48.9872 36.2111C48.3054 36.9882 47.4833 37.5 46.5 37.5C44.8701 37.5 43.6584 37.27 42.679 36.9126C41.7003 36.5554 40.9776 36.0793 40.3317 35.6267C40.2501 35.5694 40.1701 35.5129 40.0913 35.4573C39.5389 35.0672 39.0456 34.7187 38.4439 34.4473C37.7718 34.1441 36.9526 33.9344 35.7875 33.9344C35.3061 33.9344 34.8022 34.1986 34.2636 34.8057C33.7258 35.4118 33.2068 36.3022 32.7029 37.412C31.6962 39.6294 30.8072 42.5906 29.9426 45.5618C29.8697 45.8122 29.797 46.0627 29.7244 46.3129C28.942 49.009 28.1728 51.6596 27.3549 53.6328C26.9094 54.7075 26.4318 55.6269 25.9013 56.2499C25.3724 56.8711 24.6916 57.3032 23.8813 57.1052C23.1387 56.9237 22.5358 56.2599 22.0317 55.4487C21.5124 54.613 21.0257 53.5011 20.5611 52.2298C19.6939 49.8576 18.8721 46.8408 18.0533 43.8351C17.994 43.6175 17.9347 43.3998 17.8755 43.1825C16.9931 39.948 16.111 36.7831 15.1669 34.4273C14.6941 33.2472 14.218 32.3028 13.7377 31.6613C13.2454 31.0039 12.8316 30.7728 12.5 30.7728C12.076 30.7728 11.6312 30.9536 11.153 31.3407C10.673 31.7293 10.1895 32.302 9.70234 33.0228C8.72678 34.4661 7.79938 36.4051 6.88017 38.3872C6.78508 38.5922 6.69006 38.7977 6.59509 39.0032C5.78133 40.7634 4.97137 42.5155 4.15491 43.869C3.69873 44.6253 3.22377 45.2863 2.72366 45.7633C2.22705 46.237 1.65087 46.5808 1.00001 46.5808V45.5808C1.28352 45.5808 1.62375 45.4305 2.03344 45.0397C2.43962 44.6523 2.86086 44.0783 3.29863 43.3525C4.08463 42.0495 4.86995 40.3512 5.6896 38.5787C5.78358 38.3754 5.87803 38.1712 5.97298 37.9664C6.88659 35.9965 7.84591 33.9835 8.87386 32.4628C9.38841 31.7016 9.93596 31.0393 10.5239 30.5634C11.1137 30.086 11.7741 29.7728 12.5 29.7728C13.3184 29.7728 13.9917 30.3321 14.5382 31.062C15.0967 31.8079 15.6112 32.8476 16.0952 34.0553C17.0648 36.4748 17.9616 39.6989 18.8402 42.9193C18.8983 43.1325 18.9564 43.3456 19.0144 43.5586C19.8374 46.5792 20.6485 49.5561 21.5003 51.8865C21.9565 53.1347 22.4155 54.1717 22.8811 54.9209C23.3619 55.6946 23.7832 56.0518 24.1187 56.1337C24.3866 56.1992 24.712 56.1043 25.1399 55.6017C25.5663 55.1008 25.9961 54.2995 26.4311 53.2499C27.2264 51.3311 27.98 48.7352 28.768 46.0204C28.8392 45.7752 28.9106 45.5291 28.9824 45.2824C29.8428 42.3257 30.7507 39.293 31.7924 36.9986C32.3128 35.8524 32.8808 34.8574 33.5155 34.142C34.1493 33.4277 34.9032 32.9344 35.7875 32.9344C37.0848 32.9344 38.0453 33.1704 38.8551 33.5358C39.5505 33.8495 40.1263 34.2568 40.6732 34.6438C40.7512 34.699 40.8286 34.7537 40.9056 34.8077C41.5316 35.2465 42.1684 35.6618 43.0218 35.9732C43.8744 36.2843 44.9674 36.5 46.5 36.5C47.098 36.5 47.6682 36.1982 48.2355 35.5516C48.8072 34.8999 49.335 33.9412 49.8305 32.7416C50.821 30.3432 51.6246 27.13 52.426 23.8672C52.4551 23.7489 52.4841 23.6305 52.5132 23.512C53.2798 20.389 54.0506 17.2485 54.9842 14.8649C55.4683 13.6288 56.0105 12.5575 56.6443 11.7888C57.2804 11.0172 58.0587 10.4942 59.0031 10.5C59.592 10.5036 60.0602 10.8604 60.4197 11.3315C60.7807 11.8045 61.0908 12.4646 61.3658 13.2517C61.9176 14.8313 62.3735 17.0584 62.7699 19.6907C63.5177 24.6561 64.0689 31.1712 64.6257 37.7523C64.66 38.1585 64.6944 38.5649 64.7289 38.9713C65.3227 45.9747 65.9369 52.9493 66.8136 58.1723C67.2526 60.7878 67.7524 62.9319 68.3358 64.4119C68.6282 65.1538 68.9291 65.696 69.2301 66.0449C69.5282 66.3904 69.7833 66.5 70 66.5C70.5116 66.5 71.0958 66.0577 71.7081 64.8415C72.2992 63.6676 72.8192 61.9586 73.2872 59.8599C74.2216 55.67 74.9192 50.0719 75.6116 44.439C75.6276 44.3089 75.6435 44.1787 75.6595 44.0485C76.3337 38.5618 77.0081 33.0736 77.8976 28.9264C78.3522 26.8072 78.87 25.0021 79.4892 23.7166C79.7986 23.0742 80.1468 22.5323 80.5487 22.1453Z" fill="#3BA7F5"/>
<g opacity="0.1">
<path d="M93 89V3.69549e-06" stroke="#26233C"/>
<path d="M69.9999 89V3.69549e-06" stroke="#26233C"/>
<path d="M46.9999 89V3.69549e-06" stroke="#26233C"/>
<path d="M1 89V3.69549e-06" stroke="#26233C"/>
<path d="M24 89V3.69549e-06" stroke="#26233C"/>
</g>
</svg>
