<svg width="60" height="35" viewBox="0 0 60 35" fill="none" xmlns="http://www.w3.org/2000/svg">
<path fill-rule="evenodd" clip-rule="evenodd" d="M57.3428 17.9257C57.6589 18.614 58.0373 19.2064 58.5165 19.5625C58.7264 19.7184 59.023 19.6747 59.179 19.4648C59.3349 19.2549 59.2912 18.9583 59.0813 18.8024C58.7952 18.5898 58.4984 18.1731 58.2033 17.5305C57.9131 16.8987 57.6475 16.1005 57.3958 15.1837C56.9987 13.7372 56.6486 12.043 56.2909 10.3121C56.1944 9.84521 56.0973 9.37562 55.9986 8.90752C55.5382 6.72298 55.0416 4.56687 54.4029 2.95341C54.084 2.14774 53.7167 1.44292 53.2764 0.932421C52.8317 0.416846 52.2756 0.0601512 51.5966 0.0601501C51.1965 0.0601496 50.8563 0.23936 50.5808 0.503403C50.3114 0.761631 50.0864 1.11589 49.8925 1.52166C49.5045 2.33352 49.1894 3.463 48.9188 4.7731C48.3889 7.3379 48.004 10.7282 47.6205 14.1068C47.6111 14.1889 47.6018 14.271 47.5925 14.3531C47.1978 17.8289 46.8007 21.2711 46.2468 23.8445C45.9691 25.1347 45.659 26.1713 45.3068 26.8754C44.9361 27.6167 44.6151 27.8059 44.3943 27.8059C43.6372 27.8059 42.9988 27.2537 42.4024 26.1355C41.8144 25.033 41.3572 23.5451 40.8983 21.9984C40.871 21.9065 40.8437 21.8144 40.8164 21.7222C40.3921 20.2892 39.9589 18.8258 39.4144 17.704C38.8515 16.5443 38.0594 15.5198 36.8298 15.525C36.1497 15.5279 35.6342 15.9462 35.252 16.4944C34.8706 17.0416 34.5667 17.7914 34.3094 18.6392C33.8134 20.2733 33.4489 22.4186 33.0883 24.5407C33.0739 24.6253 33.0595 24.7099 33.0451 24.7944C32.6665 27.0208 32.2863 29.1996 31.7604 30.822C31.4969 31.6347 31.2086 32.2689 30.891 32.6915C30.5772 33.1092 30.2811 33.2641 29.9896 33.2641C29.2756 33.2641 28.6558 32.7388 28.0709 31.6635C27.4955 30.6057 27.0432 29.1755 26.6037 27.6902C26.5495 27.5072 26.4956 27.3234 26.4416 27.1394C26.065 25.856 25.6871 24.5683 25.2413 23.5668C24.986 22.9931 24.6929 22.4759 24.3381 22.0963C23.977 21.71 23.5231 21.438 22.9674 21.438C22.3716 21.438 21.775 20.9786 21.1458 20.0235C20.5323 19.0923 19.9855 17.8398 19.4423 16.5534C19.3962 16.4443 19.3501 16.3349 19.3041 16.2254C18.8166 15.0677 18.3263 13.9033 17.8026 13.0324C17.5156 12.5553 17.1976 12.1295 16.8352 11.8362C16.4634 11.5353 16.015 11.3523 15.5064 11.4379C15.0189 11.52 14.6089 11.8274 14.2666 12.2069C13.9208 12.5904 13.6035 13.0927 13.3071 13.6516C12.7558 14.6909 12.2351 16.0083 11.7244 17.3004C11.6866 17.396 11.6488 17.4915 11.6111 17.5867C11.0567 18.9873 10.5124 20.3311 9.93433 21.3252C9.64549 21.8219 9.36325 22.2043 9.08789 22.4577C8.81408 22.7097 8.58287 22.8026 8.38268 22.8026C7.85556 22.8026 7.30777 22.4888 6.70911 21.8784C6.11678 21.2746 5.54866 20.4576 4.97176 19.6003C4.91229 19.512 4.85268 19.4231 4.79293 19.334C4.28525 18.5771 3.76766 17.8054 3.24437 17.2075C2.67753 16.5599 1.99104 15.9798 1.18036 15.9798C0.918873 15.9798 0.706894 16.1918 0.706894 16.4533C0.706894 16.7148 0.918873 16.9268 1.18036 16.9268C1.54007 16.9268 1.97893 17.1995 2.53183 17.8312C3.01221 18.38 3.49379 19.0976 4.00937 19.8658C4.06784 19.953 4.12675 20.0407 4.18615 20.129C4.75713 20.9775 5.37064 21.8661 6.03308 22.5415C6.6892 23.2104 7.46934 23.7495 8.38268 23.7495C8.90273 23.7495 9.35236 23.5012 9.72915 23.1545C10.1044 22.8091 10.4425 22.3351 10.7529 21.8013C11.3734 20.7343 11.9432 19.3207 12.4916 17.9353C12.5273 17.845 12.563 17.7547 12.5986 17.6647C13.1163 16.3553 13.6183 15.0857 14.1436 14.0953C14.4239 13.5669 14.6988 13.1417 14.9699 12.8411C15.2444 12.5366 15.4758 12.4033 15.6636 12.3717C15.8302 12.3437 16.012 12.3881 16.2394 12.5722C16.4763 12.7639 16.7267 13.0809 16.9911 13.5205C17.4777 14.3296 17.9412 15.4298 18.4378 16.6083C18.4815 16.7122 18.5256 16.8168 18.5699 16.9218C19.1071 18.1939 19.6856 19.5284 20.355 20.5445C21.0087 21.5367 21.8526 22.385 22.9674 22.385C23.1827 22.385 23.4028 22.4825 23.6463 22.743C23.8961 23.0101 24.1381 23.4169 24.3762 23.9518C24.7941 24.8907 25.152 26.1094 25.532 27.4032C25.586 27.5871 25.6405 27.7725 25.6956 27.9589C26.131 29.4301 26.6083 30.9564 27.2391 32.1159C27.8602 33.258 28.7231 34.211 29.9896 34.211C30.6885 34.211 31.2336 33.812 31.6481 33.2604C32.0588 32.7137 32.3859 31.9631 32.6612 31.114C33.2127 29.4128 33.6034 27.1597 33.9787 24.9532C33.9911 24.8803 34.0035 24.8074 34.0159 24.7345C34.3817 22.5821 34.7374 20.4893 35.2155 18.9143C35.4632 18.0983 35.7326 17.461 36.0289 17.0359C36.3244 16.6119 36.5911 16.4729 36.8338 16.4719C37.45 16.4693 38.0084 16.976 38.5625 18.1175C39.0715 19.1662 39.484 20.5586 39.9176 22.0221C39.9418 22.1038 39.9661 22.1857 39.9904 22.2677C40.443 23.7932 40.9254 25.3784 41.5669 26.5811C42.1998 27.7679 43.0807 28.7528 44.3943 28.7528C45.2088 28.7528 45.7656 28.075 46.1537 27.299C46.5605 26.4857 46.8904 25.3547 47.1726 24.0437C47.7384 21.4147 48.1404 17.9205 48.5334 14.4599L48.5579 14.2442C48.9443 10.841 49.3251 7.48661 49.8461 4.96468C50.1128 3.67361 50.4097 2.63545 50.7468 1.92998C50.9155 1.57707 51.0814 1.33523 51.236 1.18703C51.3846 1.04464 51.5015 1.00709 51.5966 1.00709C51.9079 1.00709 52.224 1.1621 52.5593 1.55089C52.899 1.94476 53.2196 2.53697 53.5224 3.30195C54.1272 4.82978 54.6097 6.90945 55.0721 9.10283C55.1685 9.56055 55.2641 10.0231 55.3597 10.4857C55.7182 12.2207 56.0767 13.9556 56.4827 15.4344C56.7402 16.3727 57.0218 17.2268 57.3428 17.9257Z" fill="#F5683B"/>
</svg>
