<svg width="6" height="8" viewBox="0 0 6 8" fill="none" xmlns="http://www.w3.org/2000/svg">
<path d="M5.49899 3.52795C5.6083 2.78467 5.04428 2.38243 4.26603 2.11572L4.51962 1.10574L3.90751 0.952717L3.66267 1.93646C3.50089 1.89711 3.33475 1.85776 3.16861 1.82279L3.41345 0.834668L2.80134 0.681641L2.55213 1.68725C2.41659 1.65664 2.28542 1.62604 2.15863 1.59543V1.59106L1.31042 1.38119L1.14865 2.03702C1.14865 2.03702 1.60336 2.14196 1.59461 2.14633C1.84383 2.20754 1.88755 2.37368 1.87881 2.50485L1.59024 3.65474C1.60773 3.65911 1.62959 3.66348 1.65582 3.6766C1.63396 3.67223 1.6121 3.66786 1.59024 3.65911L1.188 5.26808C1.15739 5.34241 1.07869 5.45609 0.908177 5.41236C0.91255 5.42111 0.462213 5.30306 0.462213 5.30306L0.156158 6.00698L0.956272 6.20811C1.10493 6.24746 1.24921 6.28243 1.39349 6.32178L1.1399 7.34051L1.75201 7.49353L2.0056 6.48355C2.17174 6.52728 2.33789 6.571 2.49529 6.61035L2.24607 7.61596L2.85818 7.76898L3.11177 6.75026C4.1611 6.94701 4.94809 6.86831 5.27601 5.91954C5.54271 5.15878 5.26289 4.71718 4.712 4.42862C5.11861 4.3368 5.42029 4.0701 5.49899 3.52795ZM4.09551 5.49544C3.90751 6.2562 2.62208 5.84521 2.20672 5.74028L2.54338 4.38927C2.95874 4.4942 4.29664 4.6997 4.09551 5.49544ZM4.28789 3.51483C4.113 4.21001 3.04619 3.85586 2.70078 3.76842L3.00684 2.5442C3.35224 2.63164 4.46715 2.79342 4.28789 3.51483Z" fill="#312E52"/>
</svg>
